<?xml version="1.0" standalone="no"?>
<!DOCTYPE svg PUBLIC "-//W3C//DTD SVG 20010904//EN"
 "http://www.w3.org/TR/2001/REC-SVG-20010904/DTD/svg10.dtd">
<svg version="1.0" xmlns="http://www.w3.org/2000/svg"
 width="93.000000pt" height="90.000000pt" viewBox="0 0 93.000000 90.000000"
 preserveAspectRatio="xMidYMid meet">

<g transform="translate(0.000000,90.000000) scale(0.100000,-0.100000)"
fill="#000000" stroke="none">
<path d="M400 889 c-93 -12 -192 -63 -263 -138 -133 -139 -166 -330 -87 -499
32 -68 109 -156 162 -185 l33 -19 -35 28 c-101 82 -163 182 -182 298 -31 187
78 383 259 468 57 27 83 33 159 36 140 6 239 -29 343 -122 39 -34 41 -35 16
-7 -46 52 -138 107 -207 124 -86 22 -122 25 -198 16z"/>
<path d="M561 683 c-12 -25 -29 -114 -37 -200 -5 -58 -3 -78 10 -97 11 -18 16
-51 17 -113 1 -48 5 -122 8 -163 7 -73 7 -74 13 -30 4 25 10 174 13 333 5 277
2 317 -24 270z"/>
<path d="M391 611 c-1 -97 -18 -101 -24 -6 -2 47 -4 40 -5 -32 -2 -82 0 -93
18 -106 20 -14 20 -23 18 -228 l-3 -214 -40 -5 c-39 -5 -39 -6 -10 -12 37 -8
63 6 70 35 2 12 6 108 8 213 4 179 6 193 26 213 23 23 25 53 11 151 l-7 55 -2
-74 c0 -41 -3 -72 -6 -69 -3 3 -9 41 -14 84 l-8 79 -2 -84 c0 -46 -4 -82 -7
-78 -4 3 -10 41 -14 84 l-7 78 -2 -84z"/>
</g>
</svg>
