<svg xmlns="http://www.w3.org/2000/svg" width="24" height="18" viewBox="0 0 24 18">
    <g fill="#000" fill-rule="evenodd">
        <path d="M.157.172a.594.594 0 0 1 .835 0L9.821 8.6a.536.536 0 0 1 0 .8l-8.8 8.428A.602.602 0 0 1 .604 18a.598.598 0 0 1-.417-.172.536.536 0 0 1 0-.8l8.351-8.029L.155.97A.59.59 0 0 1 .157.171zM14.157.172a.594.594 0 0 1 .835 0L23.821 8.6a.536.536 0 0 1 0 .8l-8.8 8.428a.602.602 0 0 1-.417.172.598.598 0 0 1-.417-.172.536.536 0 0 1 0-.8l8.351-8.029L14.155.97a.59.59 0 0 1 .002-.799z"/>
    </g>
</svg>
