<svg xmlns="http://www.w3.org/2000/svg" width="24" height="31" viewBox="0 0 24 31">
    <path fill="#000" fill-rule="nonzero" d="M17.633.842c-1.657.549-3.228 1.104-4.381 2.25s-1.762 2.857-1.57 5.339c.027.395.462.711.856.624 1.721-.38 3.408-1.046 4.6-2.282 1.193-1.237 1.808-3.057 1.417-5.393-.099-.542-.51-.655-.922-.538zM7.433 9.41c.86 0 1.718.363 2.58.786.862.422 1.695.936 2.69.936 1.125-.105 2.184-.586 3.063-.947 1.017-.414 2.041-.775 2.91-.775 1.57 0 3.248.986 4.27 2.035-1.932 1.68-3.567 3.654-3.567 5.888.012 3.022 2.009 4.675 4.117 6.135A11.986 11.986 0 0 1 21.2 28.14c-1.154 1.414-2.525 2.282-3.58 2.282-.897 0-1.664-.288-2.437-.624-.772-.337-1.544-.754-2.481-.754-.937 0-1.772.404-2.635.743-.863.339-1.737.635-2.635.635-.395 0-1.123-.327-1.91-1.055-.788-.728-1.642-1.814-2.405-3.122C1.593 23.628.406 20.107.406 16.644.34 12.517 3.854 9.417 7.433 9.41z"/>
</svg>
