<svg xmlns="http://www.w3.org/2000/svg" width="23" height="23" viewBox="0 0 23 23">
    <path fill="#000" fill-rule="nonzero" d="M18.544 22.997c-1.113 0-2.291-.274-3.51-.559-1.253-.292-2.539-.595-3.812-.595-1.274 0-2.525.31-3.735.61C5 23.071 2.653 23.656.645 21.194l-.145-.21.038-.24c.561-3.737 2.474-6.744 5.384-8.462l.366-.216.296.313a6.698 6.698 0 0 0 4.915 2.163c1.859 0 3.636-.782 4.914-2.163l.291-.313.371.216c2.913 1.723 4.826 4.728 5.387 8.461L22.5 21l-.158.194a4.577 4.577 0 0 1-3.798 1.803zm-7.31-1.654c1.329 0 2.647.308 3.921.608 2.672.625 4.981 1.166 6.809-1.077l.017-.02v-.024c-.539-3.59-2.366-6.461-5.146-8.105l-.036-.02-.027.03a7.193 7.193 0 0 1-5.264 2.308 7.193 7.193 0 0 1-5.265-2.307l-.03-.031-.035.02c-2.795 1.644-4.623 4.52-5.16 8.105v.026l.018.02c1.808 2.218 3.911 1.695 6.348 1.09 1.226-.305 2.5-.623 3.85-.623zm.263-7.764c-3.666 0-6.638-3.04-6.638-6.79S7.831 0 11.497 0c3.667 0 6.639 3.04 6.639 6.79-.005 3.748-2.974 6.785-6.639 6.79zm0-13.076c-2.487 0-4.73 1.532-5.68 3.883-.953 2.35-.426 5.056 1.333 6.854a6.05 6.05 0 0 0 6.702 1.362c2.298-.974 3.796-3.268 3.795-5.812-.003-3.473-2.754-6.288-6.15-6.293v.006z"/>
</svg>
