<svg xmlns="http://www.w3.org/2000/svg" width="69" height="68" viewBox="0 0 69 68">
    <g fill="none" fill-rule="evenodd">
        <path fill="#010202" d="M40.508 48.684L25.405 28.216l16 19.8c.184.225.135.562-.11.752-.244.189-.59.159-.773-.065a.125.125 0 0 1-.014-.019"/>
        <path stroke="#010202" stroke-linecap="round" stroke-linejoin="round" stroke-width=".9" d="M40.608 47.875c.836 1.052 1.606 10.29 1.606 10.29s5.48-6.108 6.716-14.673c1.234-8.565-.45-9.71-1.912-14.06s-7.63-9.958-10.786-11.498c-2.276-1.11-9.564-3.634-13.512-4.975-1.422-.48-3.025.312-3.53 1.736-2.344 6.618-2.789 13.697-.856 20.214 1.147 3.864 3.119 7.514 6.492 9.302 0 0 7.856 3.86 13.087 2.884 5.229-.976 4.267 8.86 4.267 8.86"/>
        <path stroke="#000" stroke-width=".9" d="M34.7 66.665l-4.014.692-3.732-1.632-4.062-.289-3.233-2.478-3.876-1.253-2.545-3.18-3.463-2.143-1.711-3.696-2.85-2.91-.776-4-2.07-3.507.203-4.068L1.4 34.3l1.17-3.901-.202-4.068 2.07-3.508.776-3.998 2.85-2.91 1.71-3.697 3.464-2.144 2.545-3.18 3.876-1.252 3.233-2.478 4.062-.289 3.732-1.632 4.014.692 4.014-.692 3.732 1.632 4.062.289 3.233 2.478 3.876 1.253 2.545 3.18 3.463 2.143 1.711 3.696 2.85 2.91.776 4 2.07 3.507-.203 4.068L68 34.3l-1.17 3.901.202 4.068-2.07 3.508-.776 3.998-2.85 2.91-1.71 3.697-3.464 2.144-2.545 3.18-3.876 1.252-3.233 2.478-4.062.289-3.732 1.632z"/>
    </g>
</svg>
