<svg xmlns="http://www.w3.org/2000/svg" width="22" height="22" viewBox="0 0 22 22">
    <g fill="#000" fill-rule="evenodd">
        <path fill-rule="nonzero" d="M7.998 0C3.587 0 0 3.582 0 7.987c0 4.406 3.587 7.988 7.998 7.988a8.021 8.021 0 0 0 5.437-2.132l8.082 8.072a.309.309 0 0 0 .199.085.309.309 0 0 0 .199-.085.275.275 0 0 0 0-.398l-8.082-8.102a7.868 7.868 0 0 0 2.134-5.429C15.995 3.582 12.41 0 7.998 0zm5.322 13.16c-.029 0-.057.029-.086.057-.029.029-.029.056-.056.085a7.366 7.366 0 0 1-5.18 2.103C3.9 15.405.57 12.08.57 7.987S3.9.568 8 .568c4.097 0 7.428 3.326 7.428 7.42a7.356 7.356 0 0 1-2.107 5.172z"/>
        <path d="M7.288 2C7.115 2 7 2.115 7 2.288s.115.288.288.288c3.37 0 6.136 2.737 6.136 6.136 0 .173.115.288.288.288S14 8.885 14 8.712C13.999 5.025 10.974 2 7.288 2z"/>
    </g>
</svg>
