<svg xmlns="http://www.w3.org/2000/svg" xmlns:xlink="http://www.w3.org/1999/xlink" width="79" height="59" viewBox="0 0 79 59">
    <defs>
        <path id="a" d="M0 .46h70.7V45H0z"/>
        <path id="c" d="M.542 1.03h14.646v15.03H.542z"/>
    </defs>
    <g fill="none" fill-rule="evenodd">
        <g transform="translate(0 13.77)">
            <mask id="b" fill="#fff">
                <use xlink:href="#a"/>
            </mask>
            <path fill="#231F20" d="M.06 29.488c2.31 3.476 5.154 6.804 8.49 9.395 1.67 1.301 3.482 2.42 5.431 3.22 1.952.763 4.052 1.231 6.126 1.614 4.169.735 8.462.79 12.616.017 4.162-.735 8.141-2.283 11.858-4.284 3.708-2.043 7.18-4.513 10.214-7.463 3.058-2.925 5.668-6.295 8.046-9.81 2.309-3.557 4.663-7.16 6.282-11.043.372-.976.723-1.975.833-2.98.049-.5.043-.998-.08-1.452-.125-.464-.392-.795-.77-1.222-.576-.765-1.567-1.289-2.437-1.865-.9-.556-1.821-1.09-2.748-1.604l-.004-.001-.043-.027c-1.017-.67-2.414-.918-3.712-.882-.648.028-1.352.077-1.933.27a6.14 6.14 0 0 0-1.697.934c-2.106 1.625-3.748 3.875-5.18 6.145l.01-.02-7.35 14.886c-2.896 4.792-7.22 8.68-12.326 10.924a24.22 24.22 0 0 1-8.08 1.94 37.603 37.603 0 0 1-8.29-.523C9.885 34.674 4.527 32.615.06 29.49M0 29.421a40.455 40.455 0 0 0 15.351 6.02c2.72.455 5.487.608 8.239.453a23.852 23.852 0 0 0 7.956-1.973c5.01-2.236 9.26-6.152 12.05-10.822l7.258-14.918.011-.02c1.46-2.338 3.078-4.608 5.3-6.349a6.698 6.698 0 0 1 1.87-1.038c.721-.236 1.398-.272 2.11-.311 1.409-.03 2.849.163 4.136.995l-.045-.029a67.049 67.049 0 0 1 2.791 1.606c.893.594 1.876 1.067 2.621 2 .331.361.762.885.91 1.467.161.58.163 1.164.113 1.724-.12 1.123-.48 2.162-.857 3.177-1.647 4.021-3.975 7.627-6.277 11.237-2.37 3.568-4.997 7.013-8.121 9.989-3.091 3.007-6.635 5.53-10.403 7.608-7.518 4.234-16.565 5.789-25.016 4.08-2.111-.422-4.194-.914-6.214-1.733-1.992-.85-3.826-2.02-5.5-3.366A36.283 36.283 0 0 1 0 29.422" mask="url(#b)"/>
        </g>
        <g transform="translate(63 -.63)">
            <mask id="d" fill="#fff">
                <use xlink:href="#c"/>
            </mask>
            <path fill="#231F20" d="M.552 15.987c1.287-1.665 2.574-3.303 3.678-5.053 1.144-1.699 2.035-3.573 3.097-5.416.522-.918 1.05-1.834 1.682-2.702.316-.432.65-.858 1.078-1.227.414-.4 1.064-.598 1.609-.555 1.14.03 2.178.72 2.73 1.65.551.942.742 2.022.762 3.07a.044.044 0 0 1-.043.047.045.045 0 0 1-.045-.042c-.08-1.037-.335-2.079-.9-2.927-.565-.838-1.528-1.38-2.508-1.348-1.024-.074-1.618.834-2.205 1.667-.567.855-1.05 1.78-1.526 2.707-.947 1.833-1.687 3.86-2.988 5.586-1.274 1.704-2.693 3.294-4.358 4.608a.045.045 0 0 1-.063-.01c-.014-.016-.012-.039 0-.055" mask="url(#d)"/>
        </g>
        <path fill="#231F20" d="M68.622 18.382c.016-1.575.248-3.116.479-4.657.255-1.537.684-3.04 1.092-4.543a69.942 69.942 0 0 1 1.345-4.48c.26-.736.54-1.469.871-2.18.362-.666.643-1.507 1.436-1.836.024-.007.049.002.058.025.007.02 0 .045-.022.054l-.02.011c-.66.328-.914 1.175-1.204 1.852-.27.72-.49 1.462-.69 2.209a69.661 69.661 0 0 0-1.074 4.512c-.313 1.518-.541 3.051-.91 4.556-.391 1.501-.747 3.01-1.273 4.491a.045.045 0 0 1-.058.029c-.018-.005-.03-.025-.03-.043M49.67 33.732c1.082-3.058 2.378-6.043 3.946-8.906.795-1.424 1.614-2.86 2.725-4.103 1.123-1.159 2.513-2.417 4.239-2.482.025-.002.045.018.047.043 0 .02-.017.038-.035.045-1.517.562-2.58 1.757-3.567 2.978-.963 1.25-1.92 2.529-2.787 3.884-1.68 2.738-3.166 5.62-4.485 8.573a.044.044 0 0 1-.058.026.047.047 0 0 1-.025-.058"/>
    </g>
</svg>
