<svg xmlns="http://www.w3.org/2000/svg" width="61" height="61" viewBox="0 0 61 61">
    <g fill="none" fill-rule="evenodd">
        <path fill="#010202" d="M38.452 48.076l11.542-28.224-10.367 28.677a.629.629 0 1 1-1.184-.428l.009-.025"/>
        <path stroke="#010202" stroke-linecap="round" stroke-linejoin="round" stroke-width=".9" d="M39.28 47.637c-.6 1.497 1.306 12.337 1.306 12.337s-7.781-5.087-11.671-14.465c-3.892-9.378-2.394-11.273-2.095-16.76.298-5.488 5.35-14.05 8.33-16.91 2.147-2.062 9.335-7.48 13.237-10.387a3.047 3.047 0 0 1 4.358.762c4.522 6.76 7.108 14.713 6.939 22.845-.1 4.823-1.165 9.686-4.306 12.903 0 0-7.408 7.148-13.395 7.846-5.985.698-2.014 11.624-2.014 11.624M23.627 49.2S13.55 46.707 9.959 42.617C6.37 38.525.581 32.74 1.08 8.297c0 0 3.792-3.89 23.944 6.984"/>
        <path fill="#010202" d="M13.07 19.142a70.163 70.163 0 0 1 4.24 4.594c.674.797 1.389 1.573 1.921 2.49.488.92 1.064 1.896 1.048 3.016a.045.045 0 0 1-.085.02l-.003-.008c-.472-.921-1.095-1.71-1.71-2.53-.609-.82-1.149-1.698-1.739-2.547a153.944 153.944 0 0 0-3.739-4.976.044.044 0 0 1 .008-.063.044.044 0 0 1 .059.004"/>
    </g>
</svg>
